<?xml version="1.0" encoding="UTF-8" standalone="no"?>
<!DOCTYPE svg PUBLIC "-//W3C//DTD SVG 1.1//EN"
 "http://www.w3.org/Graphics/SVG/1.1/DTD/svg11.dtd">
<!-- Generated by graphviz version 2.47.0 (20210316.0004)
 -->
<!-- Title: dependencies Pages: 1 -->
<svg width="3803pt" height="284pt"
 viewBox="0.00 0.00 3803.00 284.00" xmlns="http://www.w3.org/2000/svg" xmlns:xlink="http://www.w3.org/1999/xlink">
<g id="graph0" class="graph" transform="scale(1 1) rotate(0) translate(4 280)">
<title>dependencies</title>
<polygon fill="white" stroke="transparent" points="-4,4 -4,-280 3799,-280 3799,4 -4,4"/>
<text text-anchor="start" x="1876.51" y="-42.4" font-family="Times-12" font-weight="bold" font-size="14.00">Legend</text>
<polygon fill="#ffffb3" stroke="transparent" points="1663.5,-10 1663.5,-30 1683.5,-30 1683.5,-10 1663.5,-10"/>
<text text-anchor="start" x="1687.13" y="-15.4" font-family="Times-12" font-size="14.00"> &#160;Declarations</text>
<polygon fill="#8dd3c7" stroke="transparent" points="1776.5,-10 1776.5,-30 1796.5,-30 1796.5,-10 1776.5,-10"/>
<text text-anchor="start" x="1800.23" y="-15.4" font-family="Times-12" font-size="14.00"> &#160;Module</text>
<polygon fill="#80b1d3" stroke="transparent" points="1862.5,-10 1862.5,-30 1882.5,-30 1882.5,-10 1862.5,-10"/>
<text text-anchor="start" x="1886.28" y="-15.4" font-family="Times-12" font-size="14.00"> &#160;Bootstrap</text>
<polygon fill="#fdb462" stroke="transparent" points="1959.5,-10 1959.5,-30 1979.5,-30 1979.5,-10 1959.5,-10"/>
<text text-anchor="start" x="1983.17" y="-15.4" font-family="Times-12" font-size="14.00"> &#160;Providers</text>
<polygon fill="#fb8072" stroke="transparent" points="2055.5,-10 2055.5,-30 2075.5,-30 2075.5,-10 2055.5,-10"/>
<text text-anchor="start" x="2079.23" y="-15.4" font-family="Times-12" font-size="14.00"> &#160;Exports</text>
<g id="clust1" class="cluster">
<title>cluster_AppModule</title>
<polygon fill="none" stroke="black" stroke-dasharray="1,5" points="8,-70 8,-268 3787,-268 3787,-70 8,-70"/>
</g>
<g id="clust2" class="cluster">
<title>cluster_AppModule_declarations</title>
<polygon fill="none" stroke="black" points="530,-78 530,-130 3779,-130 3779,-78 530,-78"/>
</g>
<g id="clust22" class="cluster">
<title>cluster_AppModule_imports</title>
<polygon fill="none" stroke="black" points="174,-78 174,-130 522,-130 522,-78 174,-78"/>
</g>
<g id="clust24" class="cluster">
<title>cluster_AppModule_bootstrap</title>
<polygon fill="none" stroke="black" points="1859,-208 1859,-260 1983,-260 1983,-208 1859,-208"/>
</g>
<g id="clust25" class="cluster">
<title>cluster_AppModule_providers</title>
<polygon fill="none" stroke="black" points="16,-78 16,-130 166,-130 166,-78 16,-78"/>
</g>
<!-- AddUserFormComponent -->
<g id="node1" class="node">
<title>AddUserFormComponent</title>
<polygon fill="#ffffb3" stroke="black" points="3771.2,-122 3608.8,-122 3608.8,-86 3771.2,-86 3771.2,-122"/>
<text text-anchor="middle" x="3690" y="-99.8" font-family="Times,serif" font-size="14.00">AddUserFormComponent</text>
</g>
<!-- AppModule -->
<g id="node20" class="node">
<title>AppModule</title>
<polygon fill="#8dd3c7" stroke="black" points="1962.66,-187 1959.66,-191 1938.66,-191 1935.66,-187 1879.34,-187 1879.34,-151 1962.66,-151 1962.66,-187"/>
<text text-anchor="middle" x="1921" y="-164.8" font-family="Times,serif" font-size="14.00">AppModule</text>
</g>
<!-- AddUserFormComponent&#45;&gt;AppModule -->
<g id="edge1" class="edge">
<title>AddUserFormComponent&#45;&gt;AppModule</title>
<path fill="none" stroke="black" d="M3690,-122.15C3690,-145.76 3690,-184 3690,-184 3690,-184 1972.98,-184 1972.98,-184"/>
<polygon fill="black" stroke="black" points="1972.98,-180.5 1962.98,-184 1972.98,-187.5 1972.98,-180.5"/>
</g>
<!-- AdminDashboardComponent -->
<g id="node2" class="node">
<title>AdminDashboardComponent</title>
<polygon fill="#ffffb3" stroke="black" points="3590.36,-122 3409.64,-122 3409.64,-86 3590.36,-86 3590.36,-122"/>
<text text-anchor="middle" x="3500" y="-99.8" font-family="Times,serif" font-size="14.00">AdminDashboardComponent</text>
</g>
<!-- AdminDashboardComponent&#45;&gt;AppModule -->
<g id="edge2" class="edge">
<title>AdminDashboardComponent&#45;&gt;AppModule</title>
<path fill="none" stroke="black" d="M3500,-122.25C3500,-145.02 3500,-181 3500,-181 3500,-181 1972.83,-181 1972.83,-181"/>
<polygon fill="black" stroke="black" points="1972.83,-177.5 1962.83,-181 1972.83,-184.5 1972.83,-177.5"/>
</g>
<!-- AppComponent -->
<g id="node3" class="node">
<title>AppComponent</title>
<polygon fill="#ffffb3" stroke="black" points="3391.94,-122 3286.06,-122 3286.06,-86 3391.94,-86 3391.94,-122"/>
<text text-anchor="middle" x="3339" y="-99.8" font-family="Times,serif" font-size="14.00">AppComponent</text>
</g>
<!-- AppComponent&#45;&gt;AppModule -->
<g id="edge3" class="edge">
<title>AppComponent&#45;&gt;AppModule</title>
<path fill="none" stroke="black" d="M3339,-122.29C3339,-144.21 3339,-178 3339,-178 3339,-178 1972.67,-178 1972.67,-178"/>
<polygon fill="black" stroke="black" points="1972.67,-174.5 1962.67,-178 1972.67,-181.5 1972.67,-174.5"/>
</g>
<!-- DropDowNmenuComponent -->
<g id="node4" class="node">
<title>DropDowNmenuComponent</title>
<polygon fill="#ffffb3" stroke="black" points="3268.03,-122 3089.97,-122 3089.97,-86 3268.03,-86 3268.03,-122"/>
<text text-anchor="middle" x="3179" y="-99.8" font-family="Times,serif" font-size="14.00">DropDowNmenuComponent</text>
</g>
<!-- DropDowNmenuComponent&#45;&gt;AppModule -->
<g id="edge4" class="edge">
<title>DropDowNmenuComponent&#45;&gt;AppModule</title>
<path fill="none" stroke="black" d="M3179,-122.03C3179,-142.77 3179,-174 3179,-174 3179,-174 1972.86,-174 1972.86,-174"/>
<polygon fill="black" stroke="black" points="1972.86,-170.5 1962.86,-174 1972.86,-177.5 1972.86,-170.5"/>
</g>
<!-- FormContainerComponent -->
<g id="node5" class="node">
<title>FormContainerComponent</title>
<polygon fill="#ffffb3" stroke="black" points="3071.37,-122 2904.63,-122 2904.63,-86 3071.37,-86 3071.37,-122"/>
<text text-anchor="middle" x="2988" y="-99.8" font-family="Times,serif" font-size="14.00">FormContainerComponent</text>
</g>
<!-- FormContainerComponent&#45;&gt;AppModule -->
<g id="edge5" class="edge">
<title>FormContainerComponent&#45;&gt;AppModule</title>
<path fill="none" stroke="black" d="M2988,-122.31C2988,-142.15 2988,-171 2988,-171 2988,-171 1972.83,-171 1972.83,-171"/>
<polygon fill="black" stroke="black" points="1972.83,-167.5 1962.83,-171 1972.83,-174.5 1972.83,-167.5"/>
</g>
<!-- JobDetailsComponent -->
<g id="node6" class="node">
<title>JobDetailsComponent</title>
<polygon fill="#ffffb3" stroke="black" points="2886.43,-122 2745.57,-122 2745.57,-86 2886.43,-86 2886.43,-122"/>
<text text-anchor="middle" x="2816" y="-99.8" font-family="Times,serif" font-size="14.00">JobDetailsComponent</text>
</g>
<!-- JobDetailsComponent&#45;&gt;AppModule -->
<g id="edge6" class="edge">
<title>JobDetailsComponent&#45;&gt;AppModule</title>
<path fill="none" stroke="black" d="M2816,-122.17C2816,-141.09 2816,-168 2816,-168 2816,-168 1972.67,-168 1972.67,-168"/>
<polygon fill="black" stroke="black" points="1972.67,-164.5 1962.67,-168 1972.67,-171.5 1972.67,-164.5"/>
</g>
<!-- JobDetailsFormComponent -->
<g id="node7" class="node">
<title>JobDetailsFormComponent</title>
<polygon fill="#ffffb3" stroke="black" points="2727.26,-122 2556.74,-122 2556.74,-86 2727.26,-86 2727.26,-122"/>
<text text-anchor="middle" x="2642" y="-99.8" font-family="Times,serif" font-size="14.00">JobDetailsFormComponent</text>
</g>
<!-- JobDetailsFormComponent&#45;&gt;AppModule -->
<g id="edge7" class="edge">
<title>JobDetailsFormComponent&#45;&gt;AppModule</title>
<path fill="none" stroke="black" d="M2642,-122.3C2642,-140.27 2642,-165 2642,-165 2642,-165 1972.88,-165 1972.88,-165"/>
<polygon fill="black" stroke="black" points="1972.88,-161.5 1962.88,-165 1972.88,-168.5 1972.88,-161.5"/>
</g>
<!-- JobReviewFormComponent -->
<g id="node8" class="node">
<title>JobReviewFormComponent</title>
<polygon fill="#ffffb3" stroke="black" points="2538.87,-122 2365.13,-122 2365.13,-86 2538.87,-86 2538.87,-122"/>
<text text-anchor="middle" x="2452" y="-99.8" font-family="Times,serif" font-size="14.00">JobReviewFormComponent</text>
</g>
<!-- JobReviewFormComponent&#45;&gt;AppModule -->
<g id="edge8" class="edge">
<title>JobReviewFormComponent&#45;&gt;AppModule</title>
<path fill="none" stroke="black" d="M2452,-122.04C2452,-138.73 2452,-161 2452,-161 2452,-161 1972.67,-161 1972.67,-161"/>
<polygon fill="black" stroke="black" points="1972.67,-157.5 1962.67,-161 1972.67,-164.5 1972.67,-157.5"/>
</g>
<!-- JobsListingComponent -->
<g id="node9" class="node">
<title>JobsListingComponent</title>
<polygon fill="#ffffb3" stroke="black" points="2346.89,-122 2201.11,-122 2201.11,-86 2346.89,-86 2346.89,-122"/>
<text text-anchor="middle" x="2274" y="-99.8" font-family="Times,serif" font-size="14.00">JobsListingComponent</text>
</g>
<!-- JobsListingComponent&#45;&gt;AppModule -->
<g id="edge9" class="edge">
<title>JobsListingComponent&#45;&gt;AppModule</title>
<path fill="none" stroke="black" d="M2274,-122.28C2274,-137.95 2274,-158 2274,-158 2274,-158 1972.88,-158 1972.88,-158"/>
<polygon fill="black" stroke="black" points="1972.88,-154.5 1962.88,-158 1972.88,-161.5 1972.88,-154.5"/>
</g>
<!-- LoginComponent -->
<g id="node10" class="node">
<title>LoginComponent</title>
<polygon fill="#ffffb3" stroke="black" points="2183.28,-122 2068.72,-122 2068.72,-86 2183.28,-86 2183.28,-122"/>
<text text-anchor="middle" x="2126" y="-99.8" font-family="Times,serif" font-size="14.00">LoginComponent</text>
</g>
<!-- LoginComponent&#45;&gt;AppModule -->
<g id="edge10" class="edge">
<title>LoginComponent&#45;&gt;AppModule</title>
<path fill="none" stroke="black" d="M2126,-122.12C2126,-136.78 2126,-155 2126,-155 2126,-155 1972.98,-155 1972.98,-155"/>
<polygon fill="black" stroke="black" points="1972.98,-151.5 1962.98,-155 1972.98,-158.5 1972.98,-151.5"/>
</g>
<!-- LogoutComponent -->
<g id="node11" class="node">
<title>LogoutComponent</title>
<polygon fill="#ffffb3" stroke="black" points="2050.78,-122 1929.22,-122 1929.22,-86 2050.78,-86 2050.78,-122"/>
<text text-anchor="middle" x="1990" y="-99.8" font-family="Times,serif" font-size="14.00">LogoutComponent</text>
</g>
<!-- LogoutComponent&#45;&gt;AppModule -->
<g id="edge11" class="edge">
<title>LogoutComponent&#45;&gt;AppModule</title>
<path fill="none" stroke="black" d="M1945.97,-122.11C1945.97,-122.11 1945.97,-140.99 1945.97,-140.99"/>
<polygon fill="black" stroke="black" points="1942.47,-140.99 1945.97,-150.99 1949.47,-140.99 1942.47,-140.99"/>
</g>
<!-- ModalComponent -->
<g id="node12" class="node">
<title>ModalComponent</title>
<polygon fill="#ffffb3" stroke="black" points="1910.88,-122 1793.12,-122 1793.12,-86 1910.88,-86 1910.88,-122"/>
<text text-anchor="middle" x="1852" y="-99.8" font-family="Times,serif" font-size="14.00">ModalComponent</text>
</g>
<!-- ModalComponent&#45;&gt;AppModule -->
<g id="edge12" class="edge">
<title>ModalComponent&#45;&gt;AppModule</title>
<path fill="none" stroke="black" d="M1895.06,-122.11C1895.06,-122.11 1895.06,-140.99 1895.06,-140.99"/>
<polygon fill="black" stroke="black" points="1891.56,-140.99 1895.06,-150.99 1898.56,-140.99 1891.56,-140.99"/>
</g>
<!-- NzEmptyComponent -->
<g id="node13" class="node">
<title>NzEmptyComponent</title>
<polygon fill="#ffffb3" stroke="black" points="1775.49,-122 1640.51,-122 1640.51,-86 1775.49,-86 1775.49,-122"/>
<text text-anchor="middle" x="1708" y="-99.8" font-family="Times,serif" font-size="14.00">NzEmptyComponent</text>
</g>
<!-- NzEmptyComponent&#45;&gt;AppModule -->
<g id="edge13" class="edge">
<title>NzEmptyComponent&#45;&gt;AppModule</title>
<path fill="none" stroke="black" d="M1708,-122.12C1708,-136.78 1708,-155 1708,-155 1708,-155 1869.17,-155 1869.17,-155"/>
<polygon fill="black" stroke="black" points="1869.17,-158.5 1879.17,-155 1869.17,-151.5 1869.17,-158.5"/>
</g>
<!-- RegisterUserFormComponent -->
<g id="node14" class="node">
<title>RegisterUserFormComponent</title>
<polygon fill="#ffffb3" stroke="black" points="1622.24,-122 1437.76,-122 1437.76,-86 1622.24,-86 1622.24,-122"/>
<text text-anchor="middle" x="1530" y="-99.8" font-family="Times,serif" font-size="14.00">RegisterUserFormComponent</text>
</g>
<!-- RegisterUserFormComponent&#45;&gt;AppModule -->
<g id="edge14" class="edge">
<title>RegisterUserFormComponent&#45;&gt;AppModule</title>
<path fill="none" stroke="black" d="M1530,-122.28C1530,-137.95 1530,-158 1530,-158 1530,-158 1869.16,-158 1869.16,-158"/>
<polygon fill="black" stroke="black" points="1869.16,-161.5 1879.16,-158 1869.16,-154.5 1869.16,-161.5"/>
</g>
<!-- StepQuestionsComponent -->
<g id="node15" class="node">
<title>StepQuestionsComponent</title>
<polygon fill="#ffffb3" stroke="black" points="1420.21,-122 1257.79,-122 1257.79,-86 1420.21,-86 1420.21,-122"/>
<text text-anchor="middle" x="1339" y="-99.8" font-family="Times,serif" font-size="14.00">StepQuestionsComponent</text>
</g>
<!-- StepQuestionsComponent&#45;&gt;AppModule -->
<g id="edge15" class="edge">
<title>StepQuestionsComponent&#45;&gt;AppModule</title>
<path fill="none" stroke="black" d="M1339,-122.04C1339,-138.73 1339,-161 1339,-161 1339,-161 1869.14,-161 1869.14,-161"/>
<polygon fill="black" stroke="black" points="1869.14,-164.5 1879.14,-161 1869.14,-157.5 1869.14,-164.5"/>
</g>
<!-- StepTwoJobFormComponent -->
<g id="node16" class="node">
<title>StepTwoJobFormComponent</title>
<polygon fill="#ffffb3" stroke="black" points="1239.66,-122 1058.34,-122 1058.34,-86 1239.66,-86 1239.66,-122"/>
<text text-anchor="middle" x="1149" y="-99.8" font-family="Times,serif" font-size="14.00">StepTwoJobFormComponent</text>
</g>
<!-- StepTwoJobFormComponent&#45;&gt;AppModule -->
<g id="edge16" class="edge">
<title>StepTwoJobFormComponent&#45;&gt;AppModule</title>
<path fill="none" stroke="black" d="M1149,-122.3C1149,-140.27 1149,-165 1149,-165 1149,-165 1869.22,-165 1869.22,-165"/>
<polygon fill="black" stroke="black" points="1869.22,-168.5 1879.22,-165 1869.22,-161.5 1869.22,-168.5"/>
</g>
<!-- UpdateUserFormComponent -->
<g id="node17" class="node">
<title>UpdateUserFormComponent</title>
<polygon fill="#ffffb3" stroke="black" points="1040.02,-122 861.98,-122 861.98,-86 1040.02,-86 1040.02,-122"/>
<text text-anchor="middle" x="951" y="-99.8" font-family="Times,serif" font-size="14.00">UpdateUserFormComponent</text>
</g>
<!-- UpdateUserFormComponent&#45;&gt;AppModule -->
<g id="edge17" class="edge">
<title>UpdateUserFormComponent&#45;&gt;AppModule</title>
<path fill="none" stroke="black" d="M951,-122.17C951,-141.09 951,-168 951,-168 951,-168 1869.32,-168 1869.32,-168"/>
<polygon fill="black" stroke="black" points="1869.32,-171.5 1879.32,-168 1869.32,-164.5 1869.32,-171.5"/>
</g>
<!-- UsersListingComponent -->
<g id="node18" class="node">
<title>UsersListingComponent</title>
<polygon fill="#ffffb3" stroke="black" points="843.37,-122 690.63,-122 690.63,-86 843.37,-86 843.37,-122"/>
<text text-anchor="middle" x="767" y="-99.8" font-family="Times,serif" font-size="14.00">UsersListingComponent</text>
</g>
<!-- UsersListingComponent&#45;&gt;AppModule -->
<g id="edge18" class="edge">
<title>UsersListingComponent&#45;&gt;AppModule</title>
<path fill="none" stroke="black" d="M767,-122.31C767,-142.15 767,-171 767,-171 767,-171 1869.25,-171 1869.25,-171"/>
<polygon fill="black" stroke="black" points="1869.25,-174.5 1879.25,-171 1869.25,-167.5 1869.25,-174.5"/>
</g>
<!-- WelcomeComponent -->
<g id="node19" class="node">
<title>WelcomeComponent</title>
<polygon fill="#ffffb3" stroke="black" points="672.47,-122 537.53,-122 537.53,-86 672.47,-86 672.47,-122"/>
<text text-anchor="middle" x="605" y="-99.8" font-family="Times,serif" font-size="14.00">WelcomeComponent</text>
</g>
<!-- WelcomeComponent&#45;&gt;AppModule -->
<g id="edge19" class="edge">
<title>WelcomeComponent&#45;&gt;AppModule</title>
<path fill="none" stroke="black" d="M605,-122.03C605,-142.77 605,-174 605,-174 605,-174 1869.07,-174 1869.07,-174"/>
<polygon fill="black" stroke="black" points="1869.07,-177.5 1879.07,-174 1869.07,-170.5 1869.07,-177.5"/>
</g>
<!-- AppComponent  -->
<g id="node23" class="node">
<title>AppComponent </title>
<polygon fill="#80b1d3" stroke="black" points="1975.44,-252 1866.56,-252 1866.56,-216 1975.44,-216 1975.44,-252"/>
<text text-anchor="middle" x="1921" y="-229.8" font-family="Times,serif" font-size="14.00">AppComponent </text>
</g>
<!-- AppModule&#45;&gt;AppComponent  -->
<g id="edge22" class="edge">
<title>AppModule&#45;&gt;AppComponent </title>
<path fill="none" stroke="black" stroke-dasharray="1,5" d="M1921,-187.11C1921,-187.11 1921,-205.99 1921,-205.99"/>
<polygon fill="black" stroke="black" points="1917.5,-205.99 1921,-215.99 1924.5,-205.99 1917.5,-205.99"/>
</g>
<!-- AppRoutingModule -->
<g id="node21" class="node">
<title>AppRoutingModule</title>
<polygon fill="#8dd3c7" stroke="black" points="514.27,-122 511.27,-126 490.27,-126 487.27,-122 385.73,-122 385.73,-86 514.27,-86 514.27,-122"/>
<text text-anchor="middle" x="450" y="-99.8" font-family="Times,serif" font-size="14.00">AppRoutingModule</text>
</g>
<!-- AppRoutingModule&#45;&gt;AppModule -->
<g id="edge20" class="edge">
<title>AppRoutingModule&#45;&gt;AppModule</title>
<path fill="none" stroke="black" d="M450,-122.29C450,-144.21 450,-178 450,-178 450,-178 1868.95,-178 1868.95,-178"/>
<polygon fill="black" stroke="black" points="1868.95,-181.5 1878.95,-178 1868.95,-174.5 1868.95,-181.5"/>
</g>
<!-- NgZorroAntdModulesModule -->
<g id="node22" class="node">
<title>NgZorroAntdModulesModule</title>
<polygon fill="#8dd3c7" stroke="black" points="367.52,-122 364.52,-126 343.52,-126 340.52,-122 182.48,-122 182.48,-86 367.52,-86 367.52,-122"/>
<text text-anchor="middle" x="275" y="-99.8" font-family="Times,serif" font-size="14.00">NgZorroAntdModulesModule</text>
</g>
<!-- NgZorroAntdModulesModule&#45;&gt;AppModule -->
<g id="edge21" class="edge">
<title>NgZorroAntdModulesModule&#45;&gt;AppModule</title>
<path fill="none" stroke="black" d="M275,-122.25C275,-145.02 275,-181 275,-181 275,-181 1869.07,-181 1869.07,-181"/>
<polygon fill="black" stroke="black" points="1869.07,-184.5 1879.07,-181 1869.07,-177.5 1869.07,-184.5"/>
</g>
<!-- JwtInterceptor -->
<g id="node24" class="node">
<title>JwtInterceptor</title>
<ellipse fill="#fdb462" stroke="black" cx="91" cy="-104" rx="66.61" ry="18"/>
<text text-anchor="middle" x="91" y="-99.8" font-family="Times,serif" font-size="14.00">JwtInterceptor</text>
</g>
<!-- JwtInterceptor&#45;&gt;AppModule -->
<g id="edge23" class="edge">
<title>JwtInterceptor&#45;&gt;AppModule</title>
<path fill="none" stroke="black" d="M91,-122.15C91,-145.76 91,-184 91,-184 91,-184 1869.34,-184 1869.34,-184"/>
<polygon fill="black" stroke="black" points="1869.34,-187.5 1879.34,-184 1869.34,-180.5 1869.34,-187.5"/>
</g>
</g>
</svg>
